<svg width="16" height="16" viewBox="0 0 16 16" fill="none" xmlns="http://www.w3.org/2000/svg">
<path fill-rule="evenodd" clip-rule="evenodd" d="M13.8752 2.18129C13.7158 2.02193 13.4574 2.02193 13.2981 2.18129L11.0992 4.38017C10.2139 4.03401 9.21981 3.8434 8.11292 3.83966C5.89288 3.83215 4.08634 4.5871 2.67257 5.8475C2.18054 6.28615 1.7719 6.75608 1.44151 7.22703C1.24087 7.51302 1.10923 7.7394 1.04184 7.87653C0.986044 7.99006 0.986054 8.12305 1.04187 8.23657C1.10928 8.37368 1.24093 8.60005 1.44157 8.88603C1.77197 9.35696 2.18057 9.82687 2.67248 10.2655C3.12789 10.6716 3.62402 11.0252 4.16156 11.3178L2.12474 13.3546C1.96537 13.514 1.96537 13.7724 2.12474 13.9317C2.2841 14.0911 2.54249 14.0911 2.70185 13.9317L4.94533 11.6883C5.88854 12.0701 6.94343 12.2777 8.11304 12.2734C10.3255 12.2653 12.0876 11.5106 13.431 10.2596C13.9041 9.81903 14.2908 9.34703 14.5981 8.87395C14.7848 8.58643 14.9052 8.35859 14.9658 8.22006C15.0114 8.11586 15.0114 7.99737 14.9659 7.89315C14.9053 7.75461 14.7851 7.52676 14.5985 7.23923C14.2914 6.76613 13.905 6.29412 13.4322 5.85354C12.9682 5.42122 12.4542 5.04818 11.8889 4.74473L13.8752 2.75841C14.0346 2.59904 14.0346 2.34066 13.8752 2.18129ZM10.4614 5.01794C9.75462 4.78532 8.97253 4.65874 8.11018 4.65582C6.10192 4.64903 4.48583 5.32439 3.21572 6.45671C2.77319 6.85124 2.40555 7.27401 2.10968 7.69576C2.01855 7.82566 1.94046 7.94677 1.87512 8.0565C1.94048 8.16624 2.01858 8.28737 2.10973 8.41728C2.40563 8.83905 2.77325 9.26183 3.2157 9.65637C3.68476 10.0746 4.20096 10.4305 4.76661 10.7128L5.86118 9.61819C5.54151 9.18024 5.35284 8.64043 5.35284 8.05653C5.35284 6.59318 6.53788 5.4067 7.99995 5.4067C8.58427 5.4067 9.12434 5.59621 9.5622 5.91716L10.4614 5.01794ZM10.1387 6.49488L11.2825 5.35111C11.8735 5.63949 12.4034 6.01049 12.8758 6.45067C13.2972 6.84328 13.6416 7.26396 13.9139 7.68355C14.0014 7.8184 14.0752 7.94368 14.1357 8.05643C14.0751 8.1692 14.0013 8.2945 13.9137 8.42937C13.6411 8.84898 13.2964 9.26968 12.8748 9.6623C11.6762 10.7785 10.1085 11.4499 8.11007 11.4572C7.18472 11.4606 6.34259 11.319 5.57917 11.0544L6.4377 10.1959C6.87556 10.5168 7.41563 10.7064 7.99995 10.7064C9.46201 10.7064 10.647 9.51988 10.647 8.05653C10.647 7.47264 10.4584 6.93283 10.1387 6.49488ZM8.97511 6.50425C8.69278 6.326 8.35842 6.22287 8.00003 6.22287C6.98895 6.22287 6.1691 7.04371 6.1691 8.05653C6.1691 8.41451 6.27152 8.74851 6.44861 9.03076L8.97511 6.50425ZM7.02486 9.60874L9.5514 7.0822C9.72852 7.36447 9.83097 7.6985 9.83097 8.05653C9.83097 9.06934 9.01112 9.89018 8.00003 9.89018C7.64161 9.89018 7.30722 9.78703 7.02486 9.60874Z" fill="#071848"/>
</svg>
