<svg width="16" height="16" viewBox="0 0 16 16" fill="none" xmlns="http://www.w3.org/2000/svg">
<path fill-rule="evenodd" clip-rule="evenodd" d="M1.44151 7.22699C1.24087 7.51299 1.10923 7.73937 1.04184 7.87649C0.986044 7.99003 0.986054 8.12302 1.04187 8.23654C1.10928 8.37365 1.24093 8.60001 1.44157 8.886C1.77197 9.35693 2.18057 9.82684 2.67248 10.2655C4.08655 11.5264 5.8932 12.2815 8.11304 12.2734C10.3255 12.2652 12.0876 11.5106 13.431 10.2596C13.9041 9.81899 14.2908 9.34699 14.5981 8.87391C14.7848 8.5864 14.9052 8.35856 14.9658 8.22002C15.0114 8.11583 15.0114 7.99734 14.9659 7.89312C14.9053 7.75457 14.7851 7.52673 14.5985 7.2392C14.2914 6.7661 13.905 6.29409 13.4322 5.85351C12.0889 4.60189 10.3264 3.84712 8.11292 3.83962C5.89288 3.83211 4.08634 4.58707 2.67257 5.84746C2.18054 6.28612 1.7719 6.75605 1.44151 7.22699ZM3.2157 9.65634C2.77325 9.2618 2.40563 8.83901 2.10973 8.41725C2.01858 8.28733 1.94048 8.16621 1.87512 8.05647C1.94046 7.94674 2.01855 7.82563 2.10968 7.69573C2.40555 7.27398 2.77319 6.85121 3.21572 6.45668C4.48583 5.32436 6.10192 4.64899 8.11018 4.65579C10.1095 4.66256 11.6774 5.33402 12.8758 6.45064C13.2972 6.84324 13.6416 7.26392 13.9139 7.68352C14.0014 7.81837 14.0752 7.94365 14.1357 8.0564C14.0751 8.16917 14.0013 8.29446 13.9137 8.42933C13.6411 8.84895 13.2964 9.26965 12.8748 9.66227C11.6762 10.7785 10.1085 11.4499 8.11007 11.4572C6.10215 11.4646 4.48606 10.7891 3.2157 9.65634ZM7.99995 10.7063C6.53788 10.7063 5.35284 9.51984 5.35284 8.05649C5.35284 6.59315 6.53788 5.40667 7.99995 5.40667C9.46201 5.40667 10.647 6.59315 10.647 8.05649C10.647 9.51984 9.46201 10.7063 7.99995 10.7063ZM9.83097 8.05649C9.83097 9.0693 9.01112 9.89015 8.00003 9.89015C6.98895 9.89015 6.1691 9.0693 6.1691 8.05649C6.1691 7.04368 6.98895 6.22284 8.00003 6.22284C9.01112 6.22284 9.83097 7.04368 9.83097 8.05649Z" fill="#071848"/>
</svg>
