<svg width="21" height="21" viewBox="0 0 81 81" fill="none" xmlns="http://www.w3.org/2000/svg">
<path d="M54.8049 43.5828C54.8049 43.5828 47.2049 40.1828 45.6049 42.4828C45.3049 42.9828 44.4049 43.9828 43.9049 44.6828C43.9049 44.6828 41.0049 43.3828 38.9049 41.4828C37.4049 40.0828 36.2049 38.3828 35.6049 37.3828C36.1049 36.8828 36.8048 36.0828 37.5048 34.6828C38.0048 33.6828 38.0049 32.6828 37.4049 31.5828C37.3049 31.2828 35.2049 26.2828 35.2049 26.2828C34.5049 24.4828 33.2049 23.8828 31.7049 23.4828C30.5049 23.3828 28.6049 23.4828 26.9049 25.2828C22.7049 29.9828 21.2048 37.1828 25.7048 43.4828C32.8048 52.7828 36.8049 54.4828 43.4049 56.7828C44.7048 57.1828 45.8048 57.2828 46.9049 57.2828C47.7049 57.2828 48.4048 57.1828 49.0048 57.0828C50.8048 56.7828 56.2049 52.9828 57.1049 50.2828C57.7049 48.6828 58.1048 46.3828 57.4049 45.0828C56.7049 44.4828 54.8049 43.5828 54.8049 43.5828ZM53.1049 49.1828C52.8049 49.9828 49.2048 53.1828 48.2048 53.2828C47.3048 53.3828 46.0048 53.4828 44.5048 53.0828C38.4048 50.9828 35.2049 49.5828 28.8049 41.1828C25.5049 36.4828 26.6048 31.0828 29.7048 28.1828C30.4048 27.4828 31.2049 27.4828 31.4049 27.9828L32.5048 30.5828C33.0048 31.6828 33.7049 32.7828 33.7049 33.3828C33.7049 34.1828 32.9048 34.4828 32.5048 34.8828C31.9048 35.5828 30.6049 36.9828 31.7049 39.0828C32.3049 40.0828 33.9049 42.5828 36.2049 44.6828C38.8049 46.9828 41.1048 47.9828 42.2048 48.4828L42.7048 48.6828C44.6048 49.5828 45.9049 48.7828 46.6049 47.9828C47.0049 47.5828 47.8048 45.9828 48.7048 45.4828C49.4048 45.0828 53.4048 47.5828 53.5048 47.7828C53.6048 47.9828 53.3049 48.5828 53.1049 49.1828Z" fill="white"/>
<path d="M63.0048 17.8828C57.0048 11.7828 49.0048 8.48279 40.4048 8.48279C28.6048 8.48279 18.1048 14.6828 12.4048 25.0828C6.80484 35.3828 7.10484 47.4828 13.3048 57.4828L13.5048 57.8828L9.80484 71.3828L23.7048 67.7828L24.1048 67.9828C29.2048 70.9828 34.8048 72.4828 40.4048 72.4828C45.9048 72.4828 51.4048 71.0828 56.4048 68.1828C66.4048 62.3828 72.4048 52.0828 72.4048 40.4828C72.4048 31.8828 69.1048 23.8828 63.0048 17.8828ZM54.3048 64.6828C45.4048 69.7828 34.9048 69.6828 26.1048 64.4828L24.3048 63.3828L15.6048 65.6828L17.9048 57.1828L16.7048 55.2828C11.3048 46.5828 11.0048 35.9828 15.9048 26.9828C20.9048 17.8828 30.0048 12.4828 40.4048 12.4828C47.8048 12.4828 54.9048 15.3828 60.1048 20.6828C65.5048 25.9828 68.4048 32.9828 68.4048 40.4828C68.3048 50.5828 63.1048 59.5828 54.3048 64.6828Z" fill="white"/>
</svg>
