<?xml version="1.0" encoding="utf-8"?>
<!-- Generator: Adobe Illustrator 24.1.2, SVG Export Plug-In . SVG Version: 6.00 Build 0)  -->
<svg version="1.1" id="_x5B_Line_x5D__gn_x5F_carshop"
	 xmlns="http://www.w3.org/2000/svg" xmlns:xlink="http://www.w3.org/1999/xlink" x="0px" y="0px" viewBox="0 0 212 73"
	 enable-background="new 0 0 212 73" xml:space="preserve">
<g>
	<defs>
		<rect id="SVGID_5_" width="212" height="73"/>
	</defs>
	<clipPath id="SVGID_2_">
		<use xlink:href="#SVGID_5_"  overflow="visible"/>
	</clipPath>
</g>
<g>
	<path fill="#FFFFFF" d="M196.8,40L196.8,40l-9.8-17v-0.1c-0.2-0.3-0.6-0.5-1-0.6h-12.7h-0.2c-0.3,0.1-0.6,0.3-0.8,0.6l-15.8,17
		l-0.1,0.1l-0.1,0.1c-0.1,0.1-0.1,0.2-0.1,0.3c0,0.3,0.3,0.6,0.6,0.6h7.5c0.1,0,0.1,0,0.1,0.1c0,0,0.1,0.1,0.1,0.1c0,0,0,0.1,0,0.1
		l-7.5,8.1c-0.1,0.1-0.2,0.2-0.2,0.3c0,0.1,0,0.1,0,0.2c0,0.2,0.1,0.3,0.2,0.4c0.1,0.1,0.2,0.1,0.3,0.1h5.2c0.3,0,0.7-0.1,0.9-0.4
		l8-8.6c0.1,0,0.1-0.1,0.1-0.2c0-0.1-0.1-0.2-0.2-0.2H167c-0.1,0-0.2-0.1-0.2-0.2c0,0,0-0.1,0-0.2l8.2-8.9l0.1-0.1
		c0.1-0.1,0.3-0.2,0.4-0.2c0.2,0,0.4,0.1,0.5,0.3l4.8,8.2l0.5,0.9c0,0,0,0.1,0,0.1c0,0.1-0.1,0.2-0.2,0.2h-4.4
		c-0.1,0-0.2,0.1-0.2,0.2c0,0.1,0,0.2,0,0.3l4.8,8.3c0.2,0.4,0.6,0.6,1,0.7h10c0.1,0,0.2,0,0.3,0c0.3-0.1,0.5-0.4,0.5-0.6
		c0-0.1,0-0.2,0-0.3l-0.1-0.2l-4.6-8c0,0,0-0.1,0-0.1c0-0.1,0-0.1,0.1-0.2s0.1-0.1,0.2,0h7.8c0.1,0,0.2,0,0.2,0h0.1h0.1l0.1-0.1
		l0.1-0.1v-0.2c0-0.2,0-0.4-0.1-0.6 M141.1,26.3h-8.4l-4.5,24.1h8.2c7.9,0,14.7-5.3,14.7-14C151,30.3,147.6,26.2,141.1,26.3
		 M105.8,39.7L105.8,39.7c3-1.1,5.1-4,5.1-7.3c0-2.5-1.7-6.1-6.8-6.1h-9.6l-4.5,24.1h6.5l1.7-9.1h1.9l2.5,9.1h7.1L105.8,39.7z
		 M100.3,37.2h-2.1l1.3-6.8h1.7c1.5,0.1,2.6,1.4,2.5,2.9c0,2.1-1.5,3.8-3.6,3.9 M137.2,46.3h-1.7l3-15.9h1.8c2.6,0,4.1,3,4.1,6.1
		C144.4,42.9,140.3,46.3,137.2,46.3 M116.1,26.3L116.1,26.3l-4.5,24.1H126l0.8-4.1h-7.9l1.2-6.4h6.5l0.8-4.1h-6.5l1-5.4h6.7l0.8-4.1
		L116.1,26.3z M75.6,40.2L75.6,40.2c0-6.4,4.1-9.8,7.2-9.8h8.1l0.8-4.1h-8.1c-7.9,0-14.7,5.3-14.7,14c0,6,3.4,10.1,10,10.1h8.3
		l0.8-4.1h-8.2C77.1,46.3,75.6,43.3,75.6,40.2 M181.6,31h-11.9c-0.1,0-0.2-0.1-0.2-0.2c0-0.1,0-0.1,0-0.2l7-7.5l0.2-0.2
		c0.1-0.1,0.2-0.1,0.3-0.1c0.2,0,0.4,0.1,0.5,0.3l4.3,7.5c0,0.1,0,0.1,0,0.2c0,0.2-0.1,0.3-0.3,0.3"/>
	<path fill="#FFFFFF" d="M62.2,26.3h5v24.1h-5.1L62.2,26.3z M41.8,26.3H38v24.1h3.9V32.8l14.3,17.6h3.9V26.3h-4.1V44L41.8,26.3z
		 M30.6,39.5c-0.1,5.4-1.2,8.5-5.2,8.5h-0.1c-4,0-5.1-3.1-5.2-8.5V26.3h-5v14.7c0,5.2,1.9,8.3,6.4,9.4c1.2,0.2,2.3,0.3,3.5,0.3h0.7
		c1.1,0,2.2-0.1,3.3-0.3c4.7-0.9,6.6-4.2,6.6-9.4V26.3h-4.9V39.5z"/>
</g>
</svg>
